<?xml version="1.0" encoding="utf-8"?>
<!-- Generator: Adobe Illustrator 27.5.0, SVG Export Plug-In . SVG Version: 6.00 Build 0)  -->
<svg version="1.1" id="Layer_1" xmlns="http://www.w3.org/2000/svg" xmlns:xlink="http://www.w3.org/1999/xlink" x="0px" y="0px"
	 viewBox="0 0 841.89 595.28" style="enable-background:new 0 0 841.89 595.28;" xml:space="preserve">
<style type="text/css">
	.st0{fill:#333333;}
	.st1{fill:#FFFFFF;}
	.st2{font-family:'Krungthep';}
	.st3{font-size:78px;}
</style>
<g>
	<rect class="st0" width="841.89" height="595.28"/>
</g>
<text transform="matrix(1 0 0 1 91.525 289.8782)" class="st1 st2 st3">Caravan palace</text>
<path class="st1" d="M248.05,304.92"/>
<g>
	<g>
		<path class="st1" d="M63.79,284.07c-13.29-0.8-23.61,12.53-22.35,25.19c1.45,14.6,13.95,24.97,27.13,29.3
			c15.94,5.23,34.12,4.78,50.71,4.62c17.65-0.17,35.28-1.5,52.81-3.52c70.13-8.09,138.87-27.44,209.64-29.97
			c17.21-0.61,34.48-0.19,51.61,1.68c18.55,2.03,36.7,6.16,54.72,10.96c18.18,4.84,36.26,10.02,54.66,14.03
			c17.8,3.89,35.78,6.96,53.85,9.25c37.11,4.72,74.67,6.01,112.02,3.85c28.54-1.65,65.52-2.6,77.87-33.77
			c11.36-28.67-4.44-58.02-25.96-76.84c-24.49-21.41-56.09-35.1-88.15-39.87c-7.76-1.15-15.57-1.8-23.41-1.95
			c-3.22-0.06-3.22,4.94,0,5c31.77,0.59,63.12,9.94,89.96,26.98c23.96,15.22,47.94,38.98,46.2,69.61
			c-0.79,13.81-7.16,27.07-19.14,34.5c-13.19,8.17-29.53,9.26-44.6,10.45c-34.94,2.77-70.11,2.49-105-0.79
			c-35.23-3.31-69.97-9.89-104.13-19.1c-17.06-4.6-34.04-9.53-51.36-13.05c-16.03-3.26-32.32-5.17-48.66-5.89
			c-66.15-2.9-131.22,12.8-196.03,23.55c-32.91,5.46-66.13,9.78-99.55,9.87c-16.07,0.04-33.96,0.55-49.16-5.33
			c-12.81-4.96-26.36-19.36-19.2-33.91c2.95-6,8.71-10.3,15.55-9.88C67,289.27,66.99,284.26,63.79,284.07L63.79,284.07z"/>
	</g>
</g>
</svg>
