<?xml version="1.0" encoding="utf-8"?>
<!-- Generator: Adobe Illustrator 27.5.0, SVG Export Plug-In . SVG Version: 6.00 Build 0)  -->
<svg version="1.1" id="Layer_1" xmlns="http://www.w3.org/2000/svg" xmlns:xlink="http://www.w3.org/1999/xlink" x="0px" y="0px"
	 viewBox="0 0 748.9 153.4" style="enable-background:new 0 0 748.9 153.4;" xml:space="preserve">
<style type="text/css">
	.st0{fill:#FFFFFF;}
	.st1{font-family:'Krungthep';}
	.st2{font-size:78px;}
</style>
<text transform="matrix(1 0 0 1 50.1893 92.8487)" class="st0 st1 st2">Caravan palace</text>
<path class="st0" d="M206.7,107.9"/>
<g>
	<g>
		<path class="st0" d="M22.5,87C9.2,86.2-1.2,99.6,0.1,112.2c1.5,14.6,14,25,27.1,29.3c15.9,5.2,34.1,4.8,50.7,4.6
			c17.6-0.2,35.3-1.5,52.8-3.5c70.1-8.1,138.9-27.4,209.6-30c17.2-0.6,34.5-0.2,51.6,1.7c18.5,2,36.7,6.2,54.7,11
			c18.2,4.8,36.3,10,54.7,14c17.8,3.9,35.8,7,53.8,9.2c37.1,4.7,74.7,6,112,3.9c28.5-1.6,65.5-2.6,77.9-33.8
			c11.4-28.7-4.4-58-26-76.8C694.7,20.4,663.1,6.7,631,2c-7.8-1.1-15.6-1.8-23.4-1.9c-3.2-0.1-3.2,4.9,0,5c31.8,0.6,63.1,9.9,90,27
			c24,15.2,47.9,39,46.2,69.6c-0.8,13.8-7.2,27.1-19.1,34.5c-13.2,8.2-29.5,9.3-44.6,10.5c-34.9,2.8-70.1,2.5-105-0.8
			c-35.2-3.3-70-9.9-104.1-19.1c-17.1-4.6-34-9.5-51.4-13c-16-3.3-32.3-5.2-48.7-5.9c-66.1-2.9-131.2,12.8-196,23.5
			c-32.9,5.5-66.1,9.8-99.5,9.9c-16.1,0-34,0.5-49.2-5.3c-12.8-5-26.4-19.4-19.2-33.9c3-6,8.7-10.3,15.5-9.9
			C25.7,92.2,25.7,87.2,22.5,87L22.5,87z"/>
	</g>
</g>
</svg>
